<svg id="Layer_1" data-name="Layer 1" xmlns="http://www.w3.org/2000/svg" viewBox="0 0 420.63 437.74"><defs><style>.cls-1{fill:#ff1753;}.cls-1,.cls-2,.cls-3{fill-rule:evenodd;}.cls-3{fill:#00c8cf;}</style></defs><path class="cls-1" d="M300.89,173A151.1,151.1,0,0,0,389,201.17V138A89.3,89.3,0,0,1,370.52,136v49.76a151.13,151.13,0,0,1-88.14-28.19v129a116.94,116.94,0,0,1-182,97.08A116.93,116.93,0,0,0,300.9,302V173Zm22.84-63.78a88.08,88.08,0,0,1-22.84-51.58V49.49H283.35a88.51,88.51,0,0,0,40.38,59.71Zm-182.5,225A53.49,53.49,0,0,1,200,250.85V186.23a117.89,117.89,0,0,0-18.5-1.07v50.3a53.47,53.47,0,0,0-40.29,98.69Z"/><path class="cls-2" d="M282.38,157.59a151.13,151.13,0,0,0,88.14,28.19V136a88.44,88.44,0,0,1-46.79-26.82,88.51,88.51,0,0,1-40.38-59.71H237.28V302a53.49,53.49,0,0,1-96.05,32.17,53.47,53.47,0,0,1,40.29-98.69v-50.3A116.83,116.83,0,0,0,100.4,383.67a116.92,116.92,0,0,0,182-97.08Z"/><path class="cls-3" d="M370.52,136V122.57a88.15,88.15,0,0,1-46.79-13.37A88.37,88.37,0,0,0,370.52,136ZM283.35,49.49q-.63-3.6-1-7.26V34.1H218.77V286.59a53.51,53.51,0,0,1-77.54,47.56A53.49,53.49,0,0,0,237.28,302V49.49ZM181.52,185.16V170.84A116.85,116.85,0,0,0,100.4,383.67a116.83,116.83,0,0,1,81.12-198.51Z"/></svg>